<svg width="20" height="20" viewBox="0 0 20 20" fill="none" xmlns="http://www.w3.org/2000/svg">
    <path
        d="M19.2803 1.78033C19.5732 1.48744 19.5732 1.01256 19.2803 0.71967C18.9875 0.426777 18.5126 0.426777 18.2197 0.71967L19.2803 1.78033ZM0.71967 18.2197C0.426777 18.5126 0.426777 18.9875 0.71967 19.2803C1.01256 19.5732 1.48744 19.5732 1.78033 19.2803L0.71967 18.2197ZM1.78037 0.71967C1.48747 0.426777 1.0126 0.426777 0.719707 0.71967C0.426813 1.01256 0.426813 1.48744 0.719707 1.78033L1.78037 0.71967ZM18.2197 19.2803C18.5126 19.5732 18.9875 19.5732 19.2804 19.2803C19.5733 18.9875 19.5733 18.5126 19.2804 18.2197L18.2197 19.2803ZM18.2197 0.71967L0.71967 18.2197L1.78033 19.2803L19.2803 1.78033L18.2197 0.71967ZM0.719707 1.78033L18.2197 19.2803L19.2804 18.2197L1.78037 0.71967L0.719707 1.78033Z"
        fill="#085464" fill-opacity="0.8" />
</svg>