<svg width="680" height="2345" viewBox="0 0 680 2345" fill="none" xmlns="http://www.w3.org/2000/svg">
    <path fill-rule="evenodd" clip-rule="evenodd"
        d="M679.999 42.3976C609.684 -6.61306 533.984 -5.31262 467.362 7.71584C444.298 12.226 420.144 17.4894 395.696 22.8169L395.696 22.8169C325.407 38.1336 252.687 53.98 196.469 53.98C192.357 53.98 187.998 54.0097 183.429 54.0408C131.267 54.3964 51.7325 54.9385 0 13.5955V2284.42C49.0024 2339.27 133.389 2344 205.545 2344C253.716 2344 309.742 2327.8 363.064 2312.38C411.48 2298.38 457.668 2285.02 493.726 2285.02C541.794 2285.02 623.632 2295.72 679.999 2338.88V42.3976Z"
        fill="#085464" fill-opacity="1" />
</svg>