<svg width="75" height="61" viewBox="0 0 75 61" fill="none" xmlns="http://www.w3.org/2000/svg">
    <path
        d="M58.7998 0.500006C51.2998 0.500006 45.0498 6.5 44.5498 14.5C44.0498 20 52.5498 25.75 54.5498 30.75C60.0498 46 49.2998 53 41.2998 54V60.75C63.5498 58.5 74.5498 33 74.5498 19.25C74.5498 9.75001 69.0498 0.500006 58.7998 0.500006ZM17.7998 0.500006C10.2998 0.500006 4.0498 6.5 3.7998 14.5C3.2998 20 11.5498 25.75 13.5498 30.75C19.0498 46 8.5498 53 0.549802 54V60.75C22.7998 58.5 33.7998 33 33.7998 19.25C33.7998 9.75001 28.0498 0.500006 17.7998 0.500006Z"
        fill="#085464" />
</svg>