<svg width="20" height="20" viewBox="0 0 24 24" fill="none" xmlns="http://www.w3.org/2000/svg">
    <path
        d="M14.3299 12C14.3299 13.29 13.2899 14.33 11.9999 14.33C10.7099 14.33 9.66992 13.29 9.66992 12C9.66992 10.71 10.7099 9.67004 11.9999 9.67004C13.2899 9.67004 14.3299 10.71 14.3299 12Z"
        fill="#085464" />
    <path
        d="M20.7797 8.53006C18.5497 5.85006 15.3497 4.31006 11.9997 4.31006C8.64968 4.31006 5.44969 5.85006 3.22969 8.53006C1.57969 10.5101 1.57969 13.4901 3.22969 15.4701C5.44969 18.1501 8.64968 19.6901 11.9997 19.6901C15.3497 19.6901 18.5497 18.1501 20.7797 15.4701C22.4197 13.4901 22.4197 10.5101 20.7797 8.53006ZM11.9997 15.8301C9.88968 15.8301 8.16969 14.1101 8.16969 12.0001C8.16969 9.89006 9.88968 8.17006 11.9997 8.17006C14.1097 8.17006 15.8297 9.89006 15.8297 12.0001C15.8297 14.1101 14.1097 15.8301 11.9997 15.8301Z"
        fill="#085464" />
</svg>