<svg width="20" height="20" viewBox="0 0 20 20" fill="none" xmlns="http://www.w3.org/2000/svg">
    <path
        d="M4.04154 6.58323C3.79987 6.34156 3.4082 6.34156 3.1582 6.58323C2.99154 6.74989 2.8332 6.92489 2.6832 7.10823C1.31654 8.75823 1.31654 11.2416 2.6832 12.8916C4.54154 15.1249 7.2082 16.4082 9.99987 16.4082C10.7665 16.4082 11.5249 16.3166 12.2499 16.1332C12.4665 16.0749 12.6415 15.9082 12.6999 15.6916C12.7582 15.4749 12.6999 15.2416 12.5415 15.0832L4.04154 6.58323Z"
        fill="#085464" />
    <path
        d="M15.4826 14.5999C16.1576 14.1166 16.7659 13.55 17.3159 12.8916C17.9992 12.0666 18.3409 11.0333 18.3409 9.99995C18.3409 8.96662 17.9992 7.93328 17.3159 7.10828C15.4659 4.87495 12.7992 3.59161 9.99922 3.59161C8.46589 3.59161 6.96589 3.99995 5.61589 4.73328L2.73255 1.84995C2.49089 1.60828 2.09089 1.60828 1.84922 1.84995C1.60755 2.09162 1.60755 2.49162 1.84922 2.73328L17.2659 18.15C17.3909 18.275 17.5492 18.3333 17.7076 18.3333C17.8659 18.3333 18.0242 18.275 18.1492 18.15C18.3909 17.9083 18.3909 17.5083 18.1492 17.2666L15.4826 14.5999ZM12.6576 11.7749C13.0076 11.2499 13.1909 10.6416 13.1909 9.99995C13.1909 8.24162 11.7576 6.80828 9.99922 6.80828C9.35755 6.80828 8.74922 6.99162 8.22422 7.34162L6.52422 5.64161C7.60755 5.11661 8.79922 4.84161 9.99922 4.84161C12.4242 4.84161 14.7409 5.95828 16.3576 7.90828C17.3242 9.08328 17.3242 10.9166 16.3576 12.0916C15.8326 12.7166 15.2409 13.2583 14.5909 13.7083L12.6576 11.7749Z"
        fill="#085464" />
</svg>