<svg width="279" height="250" viewBox="0 0 279 250" fill="none" xmlns="http://www.w3.org/2000/svg">
    <g clip-path="url(#clip0_2189_1299)">
        <path fill-rule="evenodd" clip-rule="evenodd"
            d="M124.348 93.8576C118.645 55.7245 87.1718 40.7076 74.5281 35.1284C63.292 30.1793 60.8394 21.0201 60.8394 21.0201C60.8394 21.0201 57.7948 31.3182 57.7948 36.2733C57.7948 41.2346 56.6531 64.496 65.7809 83.9411C74.9087 103.392 102.673 110.256 110.659 119.79C118.645 129.325 115.6 146.105 115.6 146.105C115.6 146.105 115.22 132.754 106.092 124.746C96.9641 116.737 74.5282 116.737 61.9812 93.8576C49.4281 70.9777 48.3649 28.2954 59.3171 12.2486C64.6875 4.38576 59.7339 16.4042 68.0644 24.0732C75.7907 31.1849 99.1872 38.2481 112.936 52.2898C128.619 68.3063 124.728 94.6208 124.348 93.8576Z"
            fill="#2CB67D" fill-opacity="0.2" />
        <path fill-rule="evenodd" clip-rule="evenodd"
            d="M106.884 109.438C110.164 94.3058 110.067 87.4303 100.939 77.8955C91.6302 68.1669 82.5567 71.4138 72.2207 54.1979C77.5971 75.1151 90.9295 73.534 98.3658 85.0436C105.627 96.2866 106.14 109.026 106.884 109.438Z"
            fill="#2CB67D" fill-opacity="0.2" />
        <path fill-rule="evenodd" clip-rule="evenodd"
            d="M136.078 92.2825C150.788 87.5636 156.678 84.0441 160.351 71.3472C164.096 58.402 156.756 52.1444 166.458 34.559C151.078 49.6911 159.112 60.4737 152.89 72.686C146.813 84.6135 136.066 91.4284 136.078 92.2825Z"
            fill="#2CB67D" fill-opacity="0.2" />
        <path fill-rule="evenodd" clip-rule="evenodd"
            d="M166.289 108.135C177.712 118.549 183.699 121.898 196.5 118.742C209.554 115.52 211.288 106.015 231.326 105.652C210.569 99.8607 205.271 112.23 191.613 112.933C178.268 113.618 167.014 107.693 166.289 108.135Z"
            fill="#2CB67D" fill-opacity="0.2" />
        <path fill-rule="evenodd" clip-rule="evenodd"
            d="M168.392 144.748C165.111 159.88 165.208 166.756 174.336 176.29C183.645 186.019 192.718 182.772 203.054 199.988C197.678 179.065 184.346 180.652 176.909 169.142C169.648 157.899 169.135 145.16 168.392 144.748Z"
            fill="#2CB67D" fill-opacity="0.2" />
        <path fill-rule="evenodd" clip-rule="evenodd"
            d="M141.473 162.285C126.764 166.998 120.88 170.523 117.207 183.214C113.462 196.165 120.801 202.423 111.1 220.008C126.48 204.876 118.439 194.088 124.661 181.881C130.745 169.948 141.491 163.139 141.473 162.285Z"
            fill="#2CB67D" fill-opacity="0.2" />
        <path fill-rule="evenodd" clip-rule="evenodd"
            d="M113.933 146.432C102.504 136.019 96.5173 132.663 83.7226 135.825C70.6621 139.042 68.9284 148.546 48.8906 148.916C69.6472 154.707 74.9451 142.331 88.6037 141.634C101.948 140.95 113.202 146.874 113.933 146.432Z"
            fill="#2CB67D" fill-opacity="0.2" />
        <path fill-rule="evenodd" clip-rule="evenodd"
            d="M159.729 97.3467C189.813 73.328 187.053 38.4904 185.542 24.7213C184.201 12.4848 190.882 5.77897 190.882 5.77897C190.882 5.77897 180.468 8.28079 176.185 10.7644C171.908 13.242 151.248 23.8793 139.015 41.5313C126.782 59.1834 134.732 86.7215 130.491 98.425C126.251 110.128 110.242 115.871 110.242 115.871C110.242 115.871 121.575 108.868 123.931 96.9408C126.281 85.0072 115.063 65.5258 128.546 43.1851C142.036 20.8444 178.366 -1.41755 197.697 0.0726382C207.175 0.799558 194.32 2.50783 191.861 13.5752C189.578 23.8429 195.184 47.692 189.928 66.6585C183.935 88.2844 159.264 98.0615 159.729 97.3467Z"
            fill="#2CB67D" fill-opacity="0.2" />
        <path fill-rule="evenodd" clip-rule="evenodd"
            d="M174.91 128.677C210.697 142.791 239.403 122.971 250.536 114.781C260.431 107.499 269.565 109.947 269.565 109.947C269.565 109.947 262.195 102.157 257.912 99.6729C253.629 97.1953 234.111 84.5772 212.75 82.778C191.396 80.9789 171.588 101.654 159.361 103.822C147.134 105.991 134.164 94.96 134.164 94.96C134.164 94.96 145.877 101.302 157.361 97.3831C168.839 93.4577 180.057 73.9762 206.093 74.5154C232.13 75.0606 269.523 95.4749 277.902 113.012C282.01 121.608 274.102 111.298 263.319 114.696C253.309 117.846 235.519 134.638 216.508 139.557C194.839 145.166 174.058 128.629 174.91 128.677Z"
            fill="#2CB67D" fill-opacity="0.2" />
        <path fill-rule="evenodd" clip-rule="evenodd"
            d="M153.33 156.603C159.033 194.736 190.5 209.753 203.144 215.326C214.386 220.281 216.839 229.44 216.839 229.44C216.839 229.44 219.877 219.142 219.877 214.187C219.877 209.226 221.019 185.964 211.891 166.513C202.763 147.068 175.005 140.205 167.019 130.67C159.033 121.135 162.072 104.355 162.072 104.355C162.072 104.355 162.452 117.707 171.58 125.715C180.708 133.723 203.144 133.723 215.697 156.603C228.244 179.483 229.313 222.165 218.355 238.206C212.985 246.075 217.938 234.056 209.608 226.387C201.881 219.276 178.485 212.212 164.736 198.171C149.053 182.154 152.95 155.84 153.33 156.603Z"
            fill="#2CB67D" fill-opacity="0.2" />
        <path fill-rule="evenodd" clip-rule="evenodd"
            d="M118.874 152.653C88.79 176.672 91.5568 211.516 93.067 225.279C94.4021 237.515 87.7268 244.221 87.7268 244.221C87.7268 244.221 98.1354 241.719 102.418 239.242C106.701 236.758 127.361 226.121 139.594 208.469C151.827 190.817 143.871 163.278 148.112 151.575C152.353 139.878 168.367 134.129 168.367 134.129C168.367 134.129 157.028 141.132 154.678 153.059C152.322 164.993 163.54 184.474 150.057 206.815C136.574 229.156 100.244 251.424 80.9127 249.927C71.4284 249.2 84.2896 247.492 86.7482 236.425C89.0256 226.157 83.4257 202.308 88.6813 183.341C94.6739 161.722 119.345 151.945 118.874 152.653Z"
            fill="#2CB67D" fill-opacity="0.2" />
        <path fill-rule="evenodd" clip-rule="evenodd"
            d="M104.104 121.729C68.3173 107.614 39.6109 127.435 28.4714 135.631C18.5764 142.912 9.44251 140.465 9.44251 140.465C9.44251 140.465 16.8124 148.255 21.0954 150.733C25.3785 153.211 44.8967 165.835 66.2574 167.628C87.6181 169.427 107.426 148.752 119.653 146.583C131.88 144.415 144.85 155.446 144.85 155.446C144.85 155.446 133.13 149.103 121.653 153.023C110.169 156.948 98.9509 176.43 72.9145 175.89C46.8841 175.345 9.48479 154.931 1.10603 137.4C-3.00179 128.798 4.90577 139.114 15.6888 135.716C25.6986 132.56 43.4952 115.774 62.4999 110.855C84.1687 105.246 104.95 121.777 104.104 121.729Z"
            fill="#2CB67D" fill-opacity="0.2" />
    </g>
    <defs>
        <clipPath id="clip0_2189_1299">
            <rect width="279" height="250" fill="white" />
        </clipPath>
    </defs>
</svg>

    