<?xml version="1.0" encoding="utf-8"?>
<!-- Generator: Adobe Illustrator 16.0.0, SVG Export Plug-In . SVG Version: 6.00 Build 0)  -->
<!DOCTYPE svg PUBLIC "-//W3C//DTD SVG 1.1//EN" "http://www.w3.org/Graphics/SVG/1.1/DTD/svg11.dtd">
<svg version="1.1" id="Layer_1" xmlns="http://www.w3.org/2000/svg" xmlns:xlink="http://www.w3.org/1999/xlink" x="0px" y="0px"
	 width="374.894px" height="234.733px" viewBox="0 0 374.894 234.733" enable-background="new 0 0 374.894 234.733"
	 xml:space="preserve">
<g>
	
		<polyline fill-rule="evenodd" clip-rule="evenodd" fill="none" stroke="#FBCF08" stroke-width="5" stroke-linecap="round" stroke-linejoin="round" stroke-miterlimit="10" points="
		2.5,185.973 2.5,213.306 23.833,213.306 	"/>
	
		<line fill-rule="evenodd" clip-rule="evenodd" fill="none" stroke="#FBCF08" stroke-width="5" stroke-linecap="round" stroke-linejoin="round" stroke-miterlimit="10" x1="32.114" y1="186.426" x2="54.036" y2="186.426"/>
	
		<line fill-rule="evenodd" clip-rule="evenodd" fill="none" stroke="#FBCF08" stroke-width="5" stroke-linecap="round" stroke-linejoin="round" stroke-miterlimit="10" x1="32.114" y1="200.045" x2="54.036" y2="200.045"/>
	
		<line fill-rule="evenodd" clip-rule="evenodd" fill="none" stroke="#FBCF08" stroke-width="5" stroke-linecap="round" stroke-linejoin="round" stroke-miterlimit="10" x1="32.114" y1="213.545" x2="54.036" y2="213.545"/>
	
		<polyline fill-rule="evenodd" clip-rule="evenodd" fill="none" stroke="#FBCF08" stroke-width="5" stroke-linecap="round" stroke-linejoin="round" stroke-miterlimit="10" points="
		62.093,213.962 75.954,186.531 89.899,213.962 	"/>
	
		<path fill-rule="evenodd" clip-rule="evenodd" fill="none" stroke="#FBCF08" stroke-width="5" stroke-linecap="round" stroke-linejoin="round" stroke-miterlimit="10" d="
		M97.978,214.195v-27.664c0,0,16.385,0,16.391,0c1.655,0.002,2.773,1.806,3.507,2.985c1.134,1.827,1.202,4.247,0.22,6.143
		c-1.195,2.311-2.93,3.546-5.627,3.633c-1.404,0.044-2.814,0.173-4.218,0.169l11.998,14.28"/>
	
		<polyline fill-rule="evenodd" clip-rule="evenodd" fill="none" stroke="#FBCF08" stroke-width="5" stroke-linecap="round" stroke-linejoin="round" stroke-miterlimit="10" points="
		127.737,213.642 127.737,186.665 148.569,213.014 148.868,185.412 	"/>
	
		<polyline fill-rule="evenodd" clip-rule="evenodd" fill="none" stroke="#FBCF08" stroke-width="5" stroke-linecap="round" stroke-linejoin="round" stroke-miterlimit="10" points="
		166.315,213.642 166.315,186.665 187.147,213.014 187.446,185.412 	"/>
	
		<line fill-rule="evenodd" clip-rule="evenodd" fill="none" stroke="#FBCF08" stroke-width="5" stroke-linecap="round" stroke-linejoin="round" stroke-miterlimit="10" x1="157.609" y1="182.565" x2="157.609" y2="222.213"/>
	
		<path fill-rule="evenodd" clip-rule="evenodd" fill="none" stroke="#FBCF08" stroke-width="5" stroke-linecap="round" stroke-linejoin="round" stroke-miterlimit="10" d="
		M222.96,199.78c0,7.414-5.9,13.426-13.178,13.426s-13.178-6.012-13.178-13.426c0-7.415,5.9-13.427,13.178-13.427
		c4.008,0,7.599,1.824,10.016,4.701"/>
	
		<line fill-rule="evenodd" clip-rule="evenodd" fill="none" stroke="#FBCF08" stroke-width="5" stroke-linecap="round" stroke-linejoin="round" stroke-miterlimit="10" x1="222.96" y1="199.879" x2="208.548" y2="199.879"/>
	<g>
		<g>
			
				<polyline fill-rule="evenodd" clip-rule="evenodd" fill="none" stroke="#FFFFFF" stroke-width="5" stroke-linecap="round" stroke-linejoin="round" stroke-miterlimit="10" points="
				285.173,213.962 299.034,186.531 312.98,213.962 			"/>
			
				<polyline fill-rule="evenodd" clip-rule="evenodd" fill="none" stroke="#FFFFFF" stroke-width="5" stroke-linecap="round" stroke-linejoin="round" stroke-miterlimit="10" points="
				249.9,186.127 249.9,213.366 263.52,200.463 			"/>
			
				<polyline fill-rule="evenodd" clip-rule="evenodd" fill="none" stroke="#FFFFFF" stroke-width="5" stroke-linecap="round" stroke-linejoin="round" stroke-miterlimit="10" points="
				277.139,186.127 277.139,213.366 263.52,200.463 			"/>
			
				<polyline fill-rule="evenodd" clip-rule="evenodd" fill="none" stroke="#FFFFFF" stroke-width="5" stroke-linecap="round" stroke-linejoin="round" stroke-miterlimit="10" points="
				320.894,186.531 331.706,198.973 342.519,185.973 			"/>
			
				<line fill-rule="evenodd" clip-rule="evenodd" fill="none" stroke="#FFFFFF" stroke-width="5" stroke-linecap="round" stroke-linejoin="round" stroke-miterlimit="10" x1="331.706" y1="213.962" x2="331.706" y2="198.973"/>
			
				<path fill-rule="evenodd" clip-rule="evenodd" fill="none" stroke="#FFFFFF" stroke-width="5" stroke-linecap="round" stroke-linejoin="round" stroke-miterlimit="10" d="
				M371.831,191.161c0,0-1.875-4.572-10.188-4.563c-6.654,0.008-10.313,2.907-10.313,5.875c0,7.25,7.936,7.192,11.313,7.375
				c4.625,0.25,9.738,2.625,9.75,6.813c0.013,4.375-4.688,6.938-10.531,6.938c-5.232,0-10.531-4.625-10.531-4.625"/>
		</g>
	</g>
	<path fill-rule="evenodd" clip-rule="evenodd" fill="#FBCF08" d="M254.759,75c0,8.448-0.12,16.898,0.032,25.343
		c0.168,9.353-3.788,16.166-11.87,20.778c-14.731,8.404-29.452,16.826-44.111,25.354c-8.164,4.75-16.071,4.557-24.177-0.199
		c-14.411-8.457-28.891-16.799-43.422-25.045c-7.603-4.315-12.066-10.483-12.087-19.354c-0.043-18.482-0.044-36.966,0.16-55.446
		c0.074-6.644,3.355-12.128,8.898-15.458c15.968-9.591,32.161-18.811,48.334-28.058c7.045-4.028,14.269-3.807,21.266,0.201
		c15.516,8.887,30.999,17.829,46.441,26.843c6.997,4.083,10.481,10.326,10.504,18.443c0.023,8.866,0.005,17.732,0.005,26.599
		C254.741,75,254.75,75,254.759,75z M249.282,75.191c0-9.036,0.008-18.071-0.003-27.107c-0.008-5.854-2.718-10.262-7.537-13.344
		c-3.518-2.249-7.198-4.243-10.823-6.32c-12.255-7.019-24.476-14.098-36.797-20.998c-4.778-2.676-9.808-2.601-14.612,0.129
		c-15.55,8.835-31.096,17.679-46.583,26.625c-5.669,3.274-8.404,8.296-8.371,14.951c0.087,17.318,0.086,34.638,0.004,51.956
		c-0.032,6.671,2.771,11.578,8.461,14.88c15.033,8.72,30.099,17.386,45.128,26.115c5.717,3.32,11.512,3.443,17.176,0.201
		c15.516-8.885,30.985-17.854,46.391-26.929c4.943-2.913,7.557-7.447,7.565-13.301C249.295,93.096,249.284,84.144,249.282,75.191z"
		/>
	<rect x="173.019" y="18.884" fill-rule="evenodd" clip-rule="evenodd" fill="#FBCF08" width="27.892" height="112.855"/>
	<g>
		<g>
			<path fill="#FBCF08" d="M60.392,234.549v-10.503h3.822c1.172,0,2.073,0.215,2.703,0.645s0.945,1.035,0.945,1.816
				c0,0.566-0.192,1.062-0.576,1.487c-0.383,0.424-0.872,0.72-1.468,0.886v0.029c0.747,0.093,1.345,0.369,1.79,0.827
				c0.447,0.46,0.671,1.019,0.671,1.678c0,0.962-0.345,1.725-1.032,2.289c-0.689,0.563-1.629,0.846-2.82,0.846H60.392z
				 M62.757,225.79v2.49h1.04c0.488,0,0.872-0.118,1.153-0.355c0.281-0.236,0.422-0.563,0.422-0.978
				c0-0.771-0.576-1.157-1.729-1.157H62.757z M62.757,230.038v2.769h1.281c0.547,0,0.976-0.127,1.285-0.381
				c0.311-0.254,0.466-0.601,0.466-1.04c0-0.42-0.153-0.749-0.458-0.988s-0.73-0.359-1.277-0.359H62.757z"/>
			<path fill="#FBCF08" d="M88.427,234.549h-6.299v-10.503h6.057v1.927h-3.691v2.336h3.436v1.919h-3.436v2.402h3.934V234.549z"/>
			<path fill="#FBCF08" d="M110.853,233.846c-1.025,0.591-2.301,0.887-3.824,0.887c-1.689,0-3.021-0.468-3.995-1.403
				c-0.974-0.935-1.461-2.223-1.461-3.863c0-1.65,0.532-2.995,1.597-4.036c1.064-1.039,2.48-1.56,4.248-1.56
				c1.113,0,2.095,0.153,2.944,0.462v2.219c-0.811-0.469-1.802-0.703-2.974-0.703c-0.981,0-1.781,0.318-2.398,0.956
				c-0.618,0.637-0.927,1.488-0.927,2.552c0,1.08,0.276,1.915,0.831,2.506s1.303,0.886,2.245,0.886c0.566,0,1.016-0.081,1.348-0.241
				v-2.051h-2.103v-1.891h4.469V233.846z"/>
			<path fill="#FBCF08" d="M128.26,224.046v1.831h-0.879v6.841h0.879v1.831h-4.124v-1.831h0.879v-6.841h-0.879v-1.831H128.26z"/>
			<path fill="#FBCF08" d="M151.337,234.549h-2.388l-4.329-6.6c-0.254-0.385-0.43-0.676-0.527-0.871h-0.029
				c0.039,0.371,0.059,0.938,0.059,1.699v5.771h-2.233v-10.503h2.549l4.167,6.394c0.191,0.289,0.367,0.574,0.527,0.857h0.029
				c-0.039-0.244-0.059-0.725-0.059-1.443v-5.808h2.234V234.549z"/>
			<path fill="#FBCF08" d="M173.233,225.973h-2.994v8.576h-2.373v-8.576h-2.98v-1.927h8.348V225.973z"/>
			<path fill="#FBCF08" d="M191.206,234.733c-1.504,0-2.729-0.49-3.676-1.469c-0.947-0.979-1.422-2.255-1.422-3.827
				c0-1.66,0.48-3.003,1.443-4.028c0.961-1.025,2.236-1.538,3.824-1.538c1.498,0,2.711,0.491,3.635,1.472
				c0.926,0.982,1.389,2.276,1.389,3.883c0,1.65-0.48,2.98-1.439,3.991S192.749,234.733,191.206,234.733z M191.31,225.907
				c-0.83,0-1.49,0.312-1.979,0.934c-0.488,0.623-0.732,1.447-0.732,2.473c0,1.039,0.244,1.862,0.732,2.468s1.129,0.908,1.92,0.908
				c0.814,0,1.461-0.294,1.941-0.883c0.477-0.588,0.717-1.404,0.717-2.45c0-1.088-0.232-1.936-0.695-2.541
				C192.749,226.209,192.114,225.907,191.31,225.907z"/>
		</g>
	</g>
	<g>
		<g>
			<path fill="#FBCF08" d="M229.512,233.846c-1.025,0.591-2.3,0.887-3.823,0.887c-1.689,0-3.021-0.468-3.996-1.403
				c-0.973-0.935-1.461-2.223-1.461-3.863c0-1.65,0.533-2.995,1.598-4.036c1.064-1.039,2.48-1.56,4.248-1.56
				c1.113,0,2.094,0.153,2.943,0.462v2.219c-0.811-0.469-1.801-0.703-2.973-0.703c-0.982,0-1.781,0.318-2.398,0.956
				c-0.619,0.637-0.928,1.488-0.928,2.552c0,1.08,0.277,1.915,0.832,2.506c0.554,0.591,1.303,0.886,2.244,0.886
				c0.566,0,1.016-0.081,1.348-0.241v-2.051h-2.102v-1.891h4.468V233.846z"/>
			<path fill="#FBCF08" d="M252.486,234.549h-2.718l-1.633-2.703c-0.122-0.205-0.239-0.388-0.352-0.549s-0.227-0.299-0.34-0.414
				c-0.115-0.114-0.234-0.202-0.359-0.264c-0.125-0.061-0.26-0.092-0.406-0.092h-0.638v4.021h-2.366v-10.503h3.75
				c2.549,0,3.824,0.952,3.824,2.856c0,0.366-0.057,0.704-0.169,1.015c-0.112,0.31-0.271,0.589-0.476,0.839
				c-0.205,0.248-0.453,0.464-0.744,0.645s-0.613,0.322-0.971,0.424v0.029c0.156,0.05,0.309,0.129,0.455,0.238
				c0.146,0.11,0.287,0.238,0.424,0.385s0.268,0.304,0.393,0.473c0.125,0.168,0.238,0.333,0.34,0.494L252.486,234.549z
				 M246.041,225.819v2.922h1.025c0.508,0,0.915-0.146,1.224-0.439c0.313-0.297,0.469-0.666,0.469-1.105
				c0-0.918-0.55-1.377-1.648-1.377H246.041z"/>
			<path fill="#FBCF08" d="M270.026,234.733c-1.504,0-2.729-0.49-3.677-1.469c-0.947-0.979-1.421-2.255-1.421-3.827
				c0-1.66,0.48-3.003,1.443-4.028c0.961-1.025,2.236-1.538,3.822-1.538c1.5,0,2.711,0.491,3.637,1.472
				c0.926,0.982,1.389,2.276,1.389,3.883c0,1.65-0.48,2.98-1.439,3.991C272.82,234.227,271.569,234.733,270.026,234.733z
				 M270.129,225.907c-0.83,0-1.489,0.312-1.978,0.934c-0.488,0.623-0.732,1.447-0.732,2.473c0,1.039,0.244,1.862,0.732,2.468
				s1.128,0.908,1.919,0.908c0.815,0,1.462-0.294,1.94-0.883c0.479-0.588,0.719-1.404,0.719-2.45c0-1.088-0.232-1.936-0.696-2.541
				S270.935,225.907,270.129,225.907z"/>
			<path fill="#FBCF08" d="M302.822,224.046l-2.776,10.503h-2.621l-1.744-6.738c-0.092-0.352-0.148-0.744-0.168-1.18h-0.029
				c-0.044,0.479-0.107,0.872-0.19,1.18l-1.787,6.738h-2.731l-2.762-10.503h2.586l1.479,6.995c0.064,0.298,0.11,0.698,0.14,1.201
				h0.044c0.02-0.376,0.09-0.786,0.213-1.23l1.904-6.966h2.533l1.722,7.054c0.063,0.259,0.12,0.635,0.169,1.127h0.029
				c0.02-0.385,0.07-0.775,0.153-1.172l1.45-7.009H302.822z"/>
		</g>
	</g>
</g>
</svg>
