<svg width="245" height="250" viewBox="0 0 245 250" fill="none" xmlns="http://www.w3.org/2000/svg">
    <g filter="url(#filter0_d_924_1100)">
        <rect x="15" y="11" width="215" height="220" rx="10" fill="white" />
    </g>
    <ellipse cx="61.0852" cy="62" rx="23.0852" ry="22" fill="#F3F6FB" />
    <path
        d="M58.1 51.4001C57.4 51.2001 56.6 51.1001 55.9 51.1001C55.4 51.1001 55 51.2001 54.6 51.6001C54.3 51.9001 54.1 52.4001 54.1 52.9001V53.2001H53.8C52.3 53.2001 51 54.4001 51 56.0001V66.3001C51 67.8001 52.3 69.1001 53.8 69.1001H61.2V53.2001C60.3 52.4001 59.2 51.8001 58.1 51.4001ZM53.8 67.6001C53.1 67.6001 52.5 67.0001 52.5 66.3001V56.0001C52.5 55.3001 53.1 54.7001 53.8 54.7001H54.1V64.3001C54.1 65.3001 54.9 66.0001 55.8 66.1001C56.5 66.1001 57.1 66.3001 57.7 66.5001C58.4 66.8001 59 67.2001 59.4 67.6001H53.8ZM68.2 53.2001H62.2V69.1001H68.2C69.7 69.1001 71 67.8001 71 66.3001V56.0001C71 54.4001 69.7 53.2001 68.2 53.2001ZM67.2 66.0001H64.1C63.7 66.0001 63.3 65.7001 63.3 65.2001C63.3 64.8001 63.6 64.4001 64.1 64.4001H67.2C67.6 64.4001 68 64.7001 68 65.2001C67.9 65.7001 67.6 66.0001 67.2 66.0001ZM67.2 61.9001H64.1C63.7 61.9001 63.3 61.6001 63.3 61.1001C63.3 60.7001 63.6 60.3001 64.1 60.3001H67.2C67.6 60.3001 68 60.6001 68 61.1001C67.9 61.5001 67.6 61.9001 67.2 61.9001ZM67.2 57.7001H64.1C63.7 57.7001 63.3 57.4001 63.3 56.9001C63.3 56.5001 63.6 56.1001 64.1 56.1001H67.2C67.6 56.1001 68 56.4001 68 56.9001C67.9 57.4001 67.6 57.7001 67.2 57.7001Z"
        fill="black" />
    <path
        d="M47.5052 191.112C46.4705 191.112 45.5159 190.872 44.6412 190.392C43.7772 189.901 43.0892 189.224 42.5772 188.36C42.0759 187.485 41.8252 186.504 41.8252 185.416C41.8252 184.328 42.0759 183.352 42.5772 182.488C43.0892 181.624 43.7772 180.952 44.6412 180.472C45.5159 179.981 46.4705 179.736 47.5052 179.736C48.5505 179.736 49.5052 179.981 50.3692 180.472C51.2439 180.952 51.9319 181.624 52.4332 182.488C52.9345 183.352 53.1852 184.328 53.1852 185.416C53.1852 186.504 52.9345 187.485 52.4332 188.36C51.9319 189.224 51.2439 189.901 50.3692 190.392C49.5052 190.872 48.5505 191.112 47.5052 191.112ZM47.5052 189.528C48.2412 189.528 48.8972 189.363 49.4732 189.032C50.0492 188.691 50.4972 188.211 50.8172 187.592C51.1479 186.963 51.3132 186.237 51.3132 185.416C51.3132 184.595 51.1479 183.875 50.8172 183.256C50.4972 182.637 50.0492 182.163 49.4732 181.832C48.8972 181.501 48.2412 181.336 47.5052 181.336C46.7692 181.336 46.1132 181.501 45.5372 181.832C44.9612 182.163 44.5079 182.637 44.1772 183.256C43.8572 183.875 43.6972 184.595 43.6972 185.416C43.6972 186.237 43.8572 186.963 44.1772 187.592C44.5079 188.211 44.9612 188.691 45.5372 189.032C46.1132 189.363 46.7692 189.528 47.5052 189.528ZM59.4281 182.04C60.1214 182.04 60.7401 182.184 61.2841 182.472C61.8387 182.76 62.2707 183.187 62.5801 183.752C62.8894 184.317 63.0441 185 63.0441 185.8V191H61.2361V186.072C61.2361 185.283 61.0387 184.68 60.6441 184.264C60.2494 183.837 59.7107 183.624 59.0281 183.624C58.3454 183.624 57.8014 183.837 57.3961 184.264C57.0014 184.68 56.8041 185.283 56.8041 186.072V191H54.9801V182.184H56.8041V183.192C57.1027 182.829 57.4814 182.547 57.9401 182.344C58.4094 182.141 58.9054 182.04 59.4281 182.04ZM73.4507 186.376C73.4507 186.707 73.4294 187.005 73.3867 187.272H66.6507C66.704 187.976 66.9654 188.541 67.4347 188.968C67.904 189.395 68.48 189.608 69.1627 189.608C70.144 189.608 70.8374 189.197 71.2427 188.376H73.2107C72.944 189.187 72.4587 189.853 71.7547 190.376C71.0614 190.888 70.1974 191.144 69.1627 191.144C68.32 191.144 67.5627 190.957 66.8907 190.584C66.2294 190.2 65.7067 189.667 65.3227 188.984C64.9494 188.291 64.7627 187.491 64.7627 186.584C64.7627 185.677 64.944 184.883 65.3067 184.2C65.68 183.507 66.1974 182.973 66.8587 182.6C67.5307 182.227 68.2987 182.04 69.1627 182.04C69.9947 182.04 70.736 182.221 71.3867 182.584C72.0374 182.947 72.544 183.459 72.9067 184.12C73.2694 184.771 73.4507 185.523 73.4507 186.376ZM71.5467 185.8C71.536 185.128 71.296 184.589 70.8267 184.184C70.3574 183.779 69.776 183.576 69.0827 183.576C68.4534 183.576 67.9147 183.779 67.4667 184.184C67.0187 184.579 66.752 185.117 66.6667 185.8H71.5467ZM85.3539 185.288C85.9513 185.395 86.4579 185.709 86.8739 186.232C87.2899 186.755 87.4979 187.347 87.4979 188.008C87.4979 188.573 87.3486 189.085 87.0499 189.544C86.7619 189.992 86.3406 190.349 85.7859 190.616C85.2313 190.872 84.5859 191 83.8499 191H79.4019V179.88H83.6419C84.3993 179.88 85.0499 180.008 85.5939 180.264C86.1379 180.52 86.5486 180.867 86.8259 181.304C87.1033 181.731 87.2419 182.211 87.2419 182.744C87.2419 183.384 87.0713 183.917 86.7299 184.344C86.3886 184.771 85.9299 185.085 85.3539 185.288ZM81.2259 184.552H83.4819C84.0793 184.552 84.5433 184.419 84.8739 184.152C85.2153 183.875 85.3859 183.48 85.3859 182.968C85.3859 182.467 85.2153 182.077 84.8739 181.8C84.5433 181.512 84.0793 181.368 83.4819 181.368H81.2259V184.552ZM83.6899 189.512C84.3086 189.512 84.7939 189.363 85.1459 189.064C85.4979 188.765 85.6739 188.349 85.6739 187.816C85.6739 187.272 85.4873 186.84 85.1139 186.52C84.7406 186.2 84.2446 186.04 83.6259 186.04H81.2259V189.512H83.6899ZM93.3041 191.144C92.4721 191.144 91.7201 190.957 91.0481 190.584C90.3761 190.2 89.8481 189.667 89.4641 188.984C89.0801 188.291 88.8881 187.491 88.8881 186.584C88.8881 185.688 89.0854 184.893 89.4801 184.2C89.8747 183.507 90.4134 182.973 91.0961 182.6C91.7787 182.227 92.5414 182.04 93.3841 182.04C94.2267 182.04 94.9894 182.227 95.6721 182.6C96.3547 182.973 96.8934 183.507 97.2881 184.2C97.6827 184.893 97.8801 185.688 97.8801 186.584C97.8801 187.48 97.6774 188.275 97.2721 188.968C96.8667 189.661 96.3121 190.2 95.6081 190.584C94.9147 190.957 94.1467 191.144 93.3041 191.144ZM93.3041 189.56C93.7734 189.56 94.2107 189.448 94.6161 189.224C95.0321 189 95.3681 188.664 95.6241 188.216C95.8801 187.768 96.0081 187.224 96.0081 186.584C96.0081 185.944 95.8854 185.405 95.6401 184.968C95.3947 184.52 95.0694 184.184 94.6641 183.96C94.2587 183.736 93.8214 183.624 93.3521 183.624C92.8827 183.624 92.4454 183.736 92.0401 183.96C91.6454 184.184 91.3307 184.52 91.0961 184.968C90.8614 185.405 90.7441 185.944 90.7441 186.584C90.7441 187.533 90.9841 188.269 91.4641 188.792C91.9547 189.304 92.5681 189.56 93.3041 189.56ZM103.507 191.144C102.675 191.144 101.923 190.957 101.251 190.584C100.579 190.2 100.051 189.667 99.6672 188.984C99.2832 188.291 99.0912 187.491 99.0912 186.584C99.0912 185.688 99.2885 184.893 99.6832 184.2C100.078 183.507 100.617 182.973 101.299 182.6C101.982 182.227 102.745 182.04 103.587 182.04C104.43 182.04 105.193 182.227 105.875 182.6C106.558 182.973 107.097 183.507 107.491 184.2C107.886 184.893 108.083 185.688 108.083 186.584C108.083 187.48 107.881 188.275 107.475 188.968C107.07 189.661 106.515 190.2 105.811 190.584C105.118 190.957 104.35 191.144 103.507 191.144ZM103.507 189.56C103.977 189.56 104.414 189.448 104.819 189.224C105.235 189 105.571 188.664 105.827 188.216C106.083 187.768 106.211 187.224 106.211 186.584C106.211 185.944 106.089 185.405 105.843 184.968C105.598 184.52 105.273 184.184 104.867 183.96C104.462 183.736 104.025 183.624 103.555 183.624C103.086 183.624 102.649 183.736 102.243 183.96C101.849 184.184 101.534 184.52 101.299 184.968C101.065 185.405 100.947 185.944 100.947 186.584C100.947 187.533 101.187 188.269 101.667 188.792C102.158 189.304 102.771 189.56 103.507 189.56ZM113.374 186.6L117.438 191H114.974L111.71 187.208V191H109.886V179.16H111.71V186.04L114.91 182.184H117.438L113.374 186.6ZM122.294 185.416C122.294 184.328 122.545 183.352 123.046 182.488C123.558 181.624 124.246 180.952 125.11 180.472C125.985 179.981 126.939 179.736 127.974 179.736C129.158 179.736 130.209 180.029 131.126 180.616C132.054 181.192 132.726 182.013 133.142 183.08H130.95C130.662 182.493 130.262 182.056 129.75 181.768C129.238 181.48 128.646 181.336 127.974 181.336C127.238 181.336 126.582 181.501 126.006 181.832C125.43 182.163 124.977 182.637 124.646 183.256C124.326 183.875 124.166 184.595 124.166 185.416C124.166 186.237 124.326 186.957 124.646 187.576C124.977 188.195 125.43 188.675 126.006 189.016C126.582 189.347 127.238 189.512 127.974 189.512C128.646 189.512 129.238 189.368 129.75 189.08C130.262 188.792 130.662 188.355 130.95 187.768H133.142C132.726 188.835 132.054 189.656 131.126 190.232C130.209 190.808 129.158 191.096 127.974 191.096C126.929 191.096 125.974 190.856 125.11 190.376C124.246 189.885 123.558 189.208 123.046 188.344C122.545 187.48 122.294 186.504 122.294 185.416ZM139.101 191.144C138.269 191.144 137.517 190.957 136.845 190.584C136.173 190.2 135.645 189.667 135.261 188.984C134.877 188.291 134.685 187.491 134.685 186.584C134.685 185.688 134.882 184.893 135.277 184.2C135.672 183.507 136.21 182.973 136.893 182.6C137.576 182.227 138.338 182.04 139.181 182.04C140.024 182.04 140.786 182.227 141.469 182.6C142.152 182.973 142.69 183.507 143.085 184.2C143.48 184.893 143.677 185.688 143.677 186.584C143.677 187.48 143.474 188.275 143.069 188.968C142.664 189.661 142.109 190.2 141.405 190.584C140.712 190.957 139.944 191.144 139.101 191.144ZM139.101 189.56C139.57 189.56 140.008 189.448 140.413 189.224C140.829 189 141.165 188.664 141.421 188.216C141.677 187.768 141.805 187.224 141.805 186.584C141.805 185.944 141.682 185.405 141.437 184.968C141.192 184.52 140.866 184.184 140.461 183.96C140.056 183.736 139.618 183.624 139.149 183.624C138.68 183.624 138.242 183.736 137.837 183.96C137.442 184.184 137.128 184.52 136.893 184.968C136.658 185.405 136.541 185.944 136.541 186.584C136.541 187.533 136.781 188.269 137.261 188.792C137.752 189.304 138.365 189.56 139.101 189.56ZM156.152 182.04C156.845 182.04 157.464 182.184 158.008 182.472C158.563 182.76 158.995 183.187 159.304 183.752C159.624 184.317 159.784 185 159.784 185.8V191H157.976V186.072C157.976 185.283 157.779 184.68 157.384 184.264C156.989 183.837 156.451 183.624 155.768 183.624C155.085 183.624 154.541 183.837 154.136 184.264C153.741 184.68 153.544 185.283 153.544 186.072V191H151.736V186.072C151.736 185.283 151.539 184.68 151.144 184.264C150.749 183.837 150.211 183.624 149.528 183.624C148.845 183.624 148.301 183.837 147.896 184.264C147.501 184.68 147.304 185.283 147.304 186.072V191H145.48V182.184H147.304V183.192C147.603 182.829 147.981 182.547 148.44 182.344C148.899 182.141 149.389 182.04 149.912 182.04C150.616 182.04 151.245 182.189 151.8 182.488C152.355 182.787 152.781 183.219 153.08 183.784C153.347 183.251 153.763 182.829 154.328 182.52C154.893 182.2 155.501 182.04 156.152 182.04ZM163.929 183.48C164.238 183.075 164.66 182.733 165.193 182.456C165.726 182.179 166.329 182.04 167.001 182.04C167.769 182.04 168.468 182.232 169.097 182.616C169.737 182.989 170.238 183.517 170.601 184.2C170.964 184.883 171.145 185.667 171.145 186.552C171.145 187.437 170.964 188.232 170.601 188.936C170.238 189.629 169.737 190.173 169.097 190.568C168.468 190.952 167.769 191.144 167.001 191.144C166.329 191.144 165.732 191.011 165.209 190.744C164.686 190.467 164.26 190.125 163.929 189.72V195.192H162.105V182.184H163.929V183.48ZM169.289 186.552C169.289 185.944 169.161 185.421 168.905 184.984C168.66 184.536 168.329 184.2 167.913 183.976C167.508 183.741 167.07 183.624 166.601 183.624C166.142 183.624 165.705 183.741 165.289 183.976C164.884 184.211 164.553 184.552 164.297 185C164.052 185.448 163.929 185.976 163.929 186.584C163.929 187.192 164.052 187.725 164.297 188.184C164.553 188.632 164.884 188.973 165.289 189.208C165.705 189.443 166.142 189.56 166.601 189.56C167.07 189.56 167.508 189.443 167.913 189.208C168.329 188.963 168.66 188.611 168.905 188.152C169.161 187.693 169.289 187.16 169.289 186.552ZM174.773 179.16V191H172.949V179.16H174.773ZM185.248 186.376C185.248 186.707 185.226 187.005 185.184 187.272H178.448C178.501 187.976 178.762 188.541 179.232 188.968C179.701 189.395 180.277 189.608 180.96 189.608C181.941 189.608 182.634 189.197 183.04 188.376H185.008C184.741 189.187 184.256 189.853 183.552 190.376C182.858 190.888 181.994 191.144 180.96 191.144C180.117 191.144 179.36 190.957 178.688 190.584C178.026 190.2 177.504 189.667 177.12 188.984C176.746 188.291 176.56 187.491 176.56 186.584C176.56 185.677 176.741 184.883 177.104 184.2C177.477 183.507 177.994 182.973 178.656 182.6C179.328 182.227 180.096 182.04 180.96 182.04C181.792 182.04 182.533 182.221 183.184 182.584C183.834 182.947 184.341 183.459 184.704 184.12C185.066 184.771 185.248 185.523 185.248 186.376ZM183.344 185.8C183.333 185.128 183.093 184.589 182.624 184.184C182.154 183.779 181.573 183.576 180.88 183.576C180.25 183.576 179.712 183.779 179.264 184.184C178.816 184.579 178.549 185.117 178.464 185.8H183.344ZM189.171 183.672V188.552C189.171 188.883 189.245 189.123 189.395 189.272C189.555 189.411 189.821 189.48 190.195 189.48H191.315V191H189.875C189.053 191 188.424 190.808 187.987 190.424C187.549 190.04 187.331 189.416 187.331 188.552V183.672H186.291V182.184H187.331V179.992H189.171V182.184H191.315V183.672H189.171ZM193.924 181.016C193.593 181.016 193.316 180.904 193.092 180.68C192.868 180.456 192.756 180.179 192.756 179.848C192.756 179.517 192.868 179.24 193.092 179.016C193.316 178.792 193.593 178.68 193.924 178.68C194.244 178.68 194.516 178.792 194.74 179.016C194.964 179.24 195.076 179.517 195.076 179.848C195.076 180.179 194.964 180.456 194.74 180.68C194.516 180.904 194.244 181.016 193.924 181.016ZM194.82 182.184V191H192.996V182.184H194.82ZM201.038 191.144C200.206 191.144 199.454 190.957 198.782 190.584C198.11 190.2 197.582 189.667 197.198 188.984C196.814 188.291 196.622 187.491 196.622 186.584C196.622 185.688 196.82 184.893 197.214 184.2C197.609 183.507 198.148 182.973 198.83 182.6C199.513 182.227 200.276 182.04 201.118 182.04C201.961 182.04 202.724 182.227 203.406 182.6C204.089 182.973 204.628 183.507 205.022 184.2C205.417 184.893 205.614 185.688 205.614 186.584C205.614 187.48 205.412 188.275 205.006 188.968C204.601 189.661 204.046 190.2 203.342 190.584C202.649 190.957 201.881 191.144 201.038 191.144ZM201.038 189.56C201.508 189.56 201.945 189.448 202.35 189.224C202.766 189 203.102 188.664 203.358 188.216C203.614 187.768 203.742 187.224 203.742 186.584C203.742 185.944 203.62 185.405 203.374 184.968C203.129 184.52 202.804 184.184 202.398 183.96C201.993 183.736 201.556 183.624 201.086 183.624C200.617 183.624 200.18 183.736 199.774 183.96C199.38 184.184 199.065 184.52 198.83 184.968C198.596 185.405 198.478 185.944 198.478 186.584C198.478 187.533 198.718 188.269 199.198 188.792C199.689 189.304 200.302 189.56 201.038 189.56ZM211.866 182.04C212.559 182.04 213.178 182.184 213.722 182.472C214.276 182.76 214.708 183.187 215.018 183.752C215.327 184.317 215.482 185 215.482 185.8V191H213.674V186.072C213.674 185.283 213.476 184.68 213.082 184.264C212.687 183.837 212.148 183.624 211.466 183.624C210.783 183.624 210.239 183.837 209.834 184.264C209.439 184.68 209.242 185.283 209.242 186.072V191H207.418V182.184H209.242V183.192C209.54 182.829 209.919 182.547 210.378 182.344C210.847 182.141 211.343 182.04 211.866 182.04Z"
        fill="#7F5AF0" />
    <path
        d="M45.1692 135.04C47.2172 133.269 48.8279 131.819 50.0012 130.688C51.1959 129.536 52.1879 128.341 52.9772 127.104C53.7665 125.867 54.1612 124.629 54.1612 123.392C54.1612 122.112 53.8519 121.109 53.2332 120.384C52.6359 119.659 51.6865 119.296 50.3852 119.296C49.1265 119.296 48.1452 119.701 47.4412 120.512C46.7585 121.301 46.3959 122.368 46.3532 123.712H42.8332C42.8972 121.28 43.6225 119.424 45.0092 118.144C46.4172 116.843 48.1985 116.192 50.3532 116.192C52.6785 116.192 54.4919 116.832 55.7932 118.112C57.1159 119.392 57.7772 121.099 57.7772 123.232C57.7772 124.768 57.3825 126.251 56.5932 127.68C55.8252 129.088 54.8972 130.357 53.8092 131.488C52.7425 132.597 51.3772 133.888 49.7132 135.36L48.2732 136.64H58.4172V139.68H42.8652V137.024L45.1692 135.04ZM61.6219 128.032C61.6219 124.341 62.2406 121.461 63.4779 119.392C64.7366 117.301 66.8913 116.256 69.9419 116.256C72.9926 116.256 75.1366 117.301 76.3739 119.392C77.6326 121.461 78.2619 124.341 78.2619 128.032C78.2619 131.765 77.6326 134.688 76.3739 136.8C75.1366 138.891 72.9926 139.936 69.9419 139.936C66.8913 139.936 64.7366 138.891 63.4779 136.8C62.2406 134.688 61.6219 131.765 61.6219 128.032ZM74.6779 128.032C74.6779 126.304 74.5606 124.843 74.3259 123.648C74.1126 122.453 73.6646 121.483 72.9819 120.736C72.2993 119.968 71.2859 119.584 69.9419 119.584C68.5979 119.584 67.5846 119.968 66.9019 120.736C66.2193 121.483 65.7606 122.453 65.5259 123.648C65.3126 124.843 65.2059 126.304 65.2059 128.032C65.2059 129.824 65.3126 131.328 65.5259 132.544C65.7393 133.76 66.1873 134.741 66.8699 135.488C67.5739 136.235 68.5979 136.608 69.9419 136.608C71.2859 136.608 72.2993 136.235 72.9819 135.488C73.6859 134.741 74.1446 133.76 74.3579 132.544C74.5713 131.328 74.6779 129.824 74.6779 128.032ZM106.466 124.384C106.466 125.515 106.2 126.581 105.666 127.584C105.133 128.587 104.28 129.408 103.106 130.048C101.933 130.667 100.429 130.976 98.5944 130.976H94.5624V140H90.9144V117.76H98.5944C100.301 117.76 101.741 118.059 102.914 118.656C104.109 119.232 104.994 120.021 105.57 121.024C106.168 122.027 106.466 123.147 106.466 124.384ZM98.5944 128C99.9811 128 101.016 127.691 101.698 127.072C102.381 126.432 102.722 125.536 102.722 124.384C102.722 121.952 101.346 120.736 98.5944 120.736H94.5624V128H98.5944ZM117.594 140.288C115.93 140.288 114.426 139.915 113.082 139.168C111.738 138.4 110.682 137.333 109.914 135.968C109.146 134.581 108.762 132.981 108.762 131.168C108.762 129.376 109.156 127.787 109.946 126.4C110.735 125.013 111.812 123.947 113.178 123.2C114.543 122.453 116.068 122.08 117.754 122.08C119.439 122.08 120.964 122.453 122.33 123.2C123.695 123.947 124.772 125.013 125.562 126.4C126.351 127.787 126.746 129.376 126.746 131.168C126.746 132.96 126.34 134.549 125.53 135.936C124.719 137.323 123.61 138.4 122.202 139.168C120.815 139.915 119.279 140.288 117.594 140.288ZM117.594 137.12C118.532 137.12 119.407 136.896 120.218 136.448C121.05 136 121.722 135.328 122.234 134.432C122.746 133.536 123.002 132.448 123.002 131.168C123.002 129.888 122.756 128.811 122.266 127.936C121.775 127.04 121.124 126.368 120.314 125.92C119.503 125.472 118.628 125.248 117.69 125.248C116.751 125.248 115.876 125.472 115.066 125.92C114.276 126.368 113.647 127.04 113.178 127.936C112.708 128.811 112.474 129.888 112.474 131.168C112.474 133.067 112.954 134.539 113.914 135.584C114.895 136.608 116.122 137.12 117.594 137.12ZM132.208 120.032C131.547 120.032 130.992 119.808 130.544 119.36C130.096 118.912 129.872 118.357 129.872 117.696C129.872 117.035 130.096 116.48 130.544 116.032C130.992 115.584 131.547 115.36 132.208 115.36C132.848 115.36 133.392 115.584 133.84 116.032C134.288 116.48 134.512 117.035 134.512 117.696C134.512 118.357 134.288 118.912 133.84 119.36C133.392 119.808 132.848 120.032 132.208 120.032ZM134 122.368V140H130.352V122.368H134ZM147.685 122.08C149.072 122.08 150.309 122.368 151.397 122.944C152.507 123.52 153.371 124.373 153.989 125.504C154.608 126.635 154.917 128 154.917 129.6V140H151.301V130.144C151.301 128.565 150.907 127.36 150.117 126.528C149.328 125.675 148.251 125.248 146.885 125.248C145.52 125.248 144.432 125.675 143.621 126.528C142.832 127.36 142.437 128.565 142.437 130.144V140H138.789V122.368H142.437V124.384C143.035 123.659 143.792 123.093 144.709 122.688C145.648 122.283 146.64 122.08 147.685 122.08ZM163.827 125.344V135.104C163.827 135.765 163.976 136.245 164.275 136.544C164.595 136.821 165.128 136.96 165.875 136.96H168.115V140H165.235C163.592 140 162.333 139.616 161.459 138.848C160.584 138.08 160.147 136.832 160.147 135.104V125.344H158.067V122.368H160.147V117.984H163.827V122.368H168.115V125.344H163.827ZM177.877 140.288C176.49 140.288 175.242 140.043 174.133 139.552C173.045 139.04 172.181 138.357 171.541 137.504C170.901 136.629 170.56 135.659 170.517 134.592H174.293C174.357 135.339 174.709 135.968 175.349 136.48C176.01 136.971 176.832 137.216 177.813 137.216C178.837 137.216 179.626 137.024 180.181 136.64C180.757 136.235 181.045 135.723 181.045 135.104C181.045 134.443 180.725 133.952 180.085 133.632C179.466 133.312 178.474 132.96 177.109 132.576C175.786 132.213 174.709 131.861 173.877 131.52C173.045 131.179 172.32 130.656 171.701 129.952C171.104 129.248 170.805 128.32 170.805 127.168C170.805 126.229 171.082 125.376 171.637 124.608C172.192 123.819 172.981 123.2 174.005 122.752C175.05 122.304 176.245 122.08 177.589 122.08C179.594 122.08 181.205 122.592 182.421 123.616C183.658 124.619 184.32 125.995 184.405 127.744H180.757C180.693 126.955 180.373 126.325 179.797 125.856C179.221 125.387 178.442 125.152 177.461 125.152C176.501 125.152 175.765 125.333 175.253 125.696C174.741 126.059 174.485 126.539 174.485 127.136C174.485 127.605 174.656 128 174.997 128.32C175.338 128.64 175.754 128.896 176.245 129.088C176.736 129.259 177.461 129.483 178.421 129.76C179.701 130.101 180.746 130.453 181.557 130.816C182.389 131.157 183.104 131.669 183.701 132.352C184.298 133.035 184.608 133.941 184.629 135.072C184.629 136.075 184.352 136.971 183.797 137.76C183.242 138.549 182.453 139.168 181.429 139.616C180.426 140.064 179.242 140.288 177.877 140.288Z"
        fill="black" />
    <path
        d="M107.794 68L104.914 62.996H103.348V68H101.296V55.49H105.616C106.576 55.49 107.386 55.658 108.046 55.994C108.718 56.33 109.216 56.78 109.54 57.344C109.876 57.908 110.044 58.538 110.044 59.234C110.044 60.05 109.804 60.794 109.324 61.466C108.856 62.126 108.13 62.576 107.146 62.816L110.242 68H107.794ZM103.348 61.358H105.616C106.384 61.358 106.96 61.166 107.344 60.782C107.74 60.398 107.938 59.882 107.938 59.234C107.938 58.586 107.746 58.082 107.362 57.722C106.978 57.35 106.396 57.164 105.616 57.164H103.348V61.358ZM121.759 62.798C121.759 63.17 121.735 63.506 121.687 63.806H114.109C114.169 64.598 114.463 65.234 114.991 65.714C115.519 66.194 116.167 66.434 116.935 66.434C118.039 66.434 118.819 65.972 119.275 65.048H121.489C121.189 65.96 120.643 66.71 119.851 67.298C119.071 67.874 118.099 68.162 116.935 68.162C115.987 68.162 115.135 67.952 114.379 67.532C113.635 67.1 113.047 66.5 112.615 65.732C112.195 64.952 111.985 64.052 111.985 63.032C111.985 62.012 112.189 61.118 112.597 60.35C113.017 59.57 113.599 58.97 114.343 58.55C115.099 58.13 115.963 57.92 116.935 57.92C117.871 57.92 118.705 58.124 119.437 58.532C120.169 58.94 120.739 59.516 121.147 60.26C121.555 60.992 121.759 61.838 121.759 62.798ZM119.617 62.15C119.605 61.394 119.335 60.788 118.807 60.332C118.279 59.876 117.625 59.648 116.845 59.648C116.137 59.648 115.531 59.876 115.027 60.332C114.523 60.776 114.223 61.382 114.127 62.15H119.617ZM123.095 62.996C123.095 62 123.299 61.118 123.707 60.35C124.127 59.582 124.691 58.988 125.399 58.568C126.119 58.136 126.911 57.92 127.775 57.92C128.555 57.92 129.233 58.076 129.809 58.388C130.397 58.688 130.865 59.066 131.213 59.522V58.082H133.283V68H131.213V66.524C130.865 66.992 130.391 67.382 129.791 67.694C129.191 68.006 128.507 68.162 127.739 68.162C126.887 68.162 126.107 67.946 125.399 67.514C124.691 67.07 124.127 66.458 123.707 65.678C123.299 64.886 123.095 63.992 123.095 62.996ZM131.213 63.032C131.213 62.348 131.069 61.754 130.781 61.25C130.505 60.746 130.139 60.362 129.683 60.098C129.227 59.834 128.735 59.702 128.207 59.702C127.679 59.702 127.187 59.834 126.731 60.098C126.275 60.35 125.903 60.728 125.615 61.232C125.339 61.724 125.201 62.312 125.201 62.996C125.201 63.68 125.339 64.28 125.615 64.796C125.903 65.312 126.275 65.708 126.731 65.984C127.199 66.248 127.691 66.38 128.207 66.38C128.735 66.38 129.227 66.248 129.683 65.984C130.139 65.72 130.505 65.336 130.781 64.832C131.069 64.316 131.213 63.716 131.213 63.032ZM135.294 62.996C135.294 62 135.498 61.118 135.906 60.35C136.326 59.582 136.89 58.988 137.598 58.568C138.318 58.136 139.116 57.92 139.992 57.92C140.64 57.92 141.276 58.064 141.9 58.352C142.536 58.628 143.04 59 143.412 59.468V54.68H145.482V68H143.412V66.506C143.076 66.986 142.608 67.382 142.008 67.694C141.42 68.006 140.742 68.162 139.974 68.162C139.11 68.162 138.318 67.946 137.598 67.514C136.89 67.07 136.326 66.458 135.906 65.678C135.498 64.886 135.294 63.992 135.294 62.996ZM143.412 63.032C143.412 62.348 143.268 61.754 142.98 61.25C142.704 60.746 142.338 60.362 141.882 60.098C141.426 59.834 140.934 59.702 140.406 59.702C139.878 59.702 139.386 59.834 138.93 60.098C138.474 60.35 138.102 60.728 137.814 61.232C137.538 61.724 137.4 62.312 137.4 62.996C137.4 63.68 137.538 64.28 137.814 64.796C138.102 65.312 138.474 65.708 138.93 65.984C139.398 66.248 139.89 66.38 140.406 66.38C140.934 66.38 141.426 66.248 141.882 65.984C142.338 65.72 142.704 65.336 142.98 64.832C143.268 64.316 143.412 63.716 143.412 63.032Z"
        fill="#191C32" />
    <defs>
        <filter id="filter0_d_924_1100" x="0" y="0" width="245" height="250"
            filterUnits="userSpaceOnUse" color-interpolation-filters="sRGB">
            <feFlood flood-opacity="0" result="BackgroundImageFix" />
            <feColorMatrix in="SourceAlpha" type="matrix"
                values="0 0 0 0 0 0 0 0 0 0 0 0 0 0 0 0 0 0 127 0" result="hardAlpha" />
            <feOffset dy="4" />
            <feGaussianBlur stdDeviation="7.5" />
            <feComposite in2="hardAlpha" operator="out" />
            <feColorMatrix type="matrix" values="0 0 0 0 0 0 0 0 0 0 0 0 0 0 0 0 0 0 0.15 0" />
            <feBlend mode="normal" in2="BackgroundImageFix" result="effect1_dropShadow_924_1100" />
            <feBlend mode="normal" in="SourceGraphic" in2="effect1_dropShadow_924_1100"
                result="shape" />
        </filter>
    </defs>
</svg>