<svg width="75" height="61" viewBox="0 0 75 61" fill="none" xmlns="http://www.w3.org/2000/svg">
    <path
        d="M16.2002 60.5C23.7002 60.5 29.9502 54.5 30.4502 46.5C30.9502 41 22.4502 35.25 20.4502 30.25C14.9502 15 25.7002 8 33.7002 7V0.249994C11.4502 2.5 0.450195 28 0.450195 41.75C0.450195 51.25 5.9502 60.5 16.2002 60.5ZM57.2002 60.5C64.7002 60.5 70.9502 54.5 71.2002 46.5C71.7002 41 63.4502 35.25 61.4502 30.25C55.9502 15 66.4502 8 74.4502 7V0.249994C52.2002 2.5 41.2002 28 41.2002 41.75C41.2002 51.25 46.9502 60.5 57.2002 60.5Z"
        fill="#ffff" />
</svg>